<?xml version="1.0" standalone="no"?>
<!DOCTYPE svg PUBLIC "-//W3C//DTD SVG 20010904//EN"
 "http://www.w3.org/TR/2001/REC-SVG-20010904/DTD/svg10.dtd">
<svg version="1.0" xmlns="http://www.w3.org/2000/svg"
 width="512.000000pt" height="512.000000pt" viewBox="0 0 512.000000 512.000000"
 preserveAspectRatio="xMidYMid meet">

<g transform="translate(0.000000,512.000000) scale(0.100000,-0.100000)"
fill="#000000" stroke="none">
<path d="M740 1407 c-51 -31 -55 -36 -58 -75 -2 -23 0 -42 4 -42 3 0 32 16 64
35 l58 35 59 -35 c32 -19 64 -35 72 -35 7 0 39 16 71 35 l58 35 59 -35 c32
-19 63 -35 70 -35 7 0 38 16 69 34 62 38 59 38 136 -11 21 -12 40 -23 43 -23
4 0 5 19 3 42 -3 40 -6 44 -62 77 l-59 35 -66 -36 -67 -36 -57 34 c-32 19 -63
34 -70 34 -7 0 -38 -16 -70 -35 l-59 -35 -58 35 c-32 19 -64 35 -71 35 -8 0
-39 -15 -69 -33z"/>
<path d="M740 1167 c-51 -31 -55 -36 -58 -75 -2 -23 0 -42 4 -42 3 0 33 16 65
36 l59 35 59 -35 c32 -20 63 -36 69 -36 6 0 38 16 71 36 l60 36 58 -36 c32
-20 63 -36 68 -36 6 0 37 16 70 36 43 26 64 33 75 27 8 -5 36 -22 63 -37 l47
-28 0 44 c0 42 -2 44 -54 76 -30 17 -61 32 -70 32 -8 0 -41 -16 -72 -35 l-58
-34 -35 21 c-20 12 -45 28 -56 35 -30 20 -50 16 -109 -22 l-55 -35 -58 35
c-32 19 -65 35 -73 35 -8 0 -40 -15 -70 -33z"/>
<path d="M733 927 c-50 -31 -53 -34 -53 -75 l0 -44 48 28 c26 15 54 32 63 37
12 7 33 0 83 -28 l67 -37 62 37 c69 41 53 43 153 -15 l41 -24 62 38 c69 42 65
42 149 -9 l42 -26 0 43 c0 42 -2 45 -54 76 -30 17 -62 32 -73 32 -10 0 -42
-16 -72 -34 l-54 -34 -56 34 c-31 19 -65 34 -75 34 -10 0 -41 -13 -68 -30 -26
-16 -53 -30 -58 -30 -6 0 -34 14 -63 30 -30 17 -62 30 -73 29 -10 0 -43 -15
-71 -32z"/>
<path d="M742 692 c-61 -36 -62 -37 -62 -80 l0 -44 48 28 c26 15 54 32 63 37
12 7 33 0 80 -26 l65 -37 45 25 c90 51 81 50 151 11 l64 -36 45 25 c95 54 78
55 187 -13 22 -14 22 -14 22 31 0 45 -1 46 -54 76 -29 17 -61 31 -70 31 -10 0
-43 -14 -75 -32 l-58 -32 -51 32 c-65 40 -82 40 -144 2 -26 -16 -53 -30 -60
-30 -6 0 -32 13 -57 28 -70 43 -73 43 -139 4z"/>
<path d="M743 454 c-63 -35 -63 -35 -63 -80 l0 -46 38 23 c20 12 46 29 57 36
28 19 38 17 95 -17 28 -16 59 -30 68 -30 9 0 42 15 73 34 l56 34 54 -34 c30
-18 63 -34 74 -34 11 0 45 15 75 33 l55 33 63 -38 62 -38 0 44 c0 44 -1 45
-62 82 l-61 38 -41 -24 c-100 -58 -84 -56 -155 -14 l-64 38 -31 -19 c-17 -10
-47 -27 -66 -38 l-35 -20 -60 37 c-33 20 -62 36 -65 36 -3 0 -33 -16 -67 -36z"/>
<path d="M940 120 l-514 -5 -15 -27 c-14 -25 -14 -29 5 -55 l21 -28 2122 -3
c2110 -2 2121 -2 2141 18 25 25 25 51 1 81 l-19 24 -1614 0 c-887 1 -1845 -2
-2128 -5z"/>
</g>
</svg>
